<?xml version="1.0" encoding="UTF-8"?>
<svg width="135px" height="140px" viewBox="0 0 135 140" version="1.1" xmlns="http://www.w3.org/2000/svg" xmlns:xlink="http://www.w3.org/1999/xlink">
    <!-- Generator: Sketch 42 (36781) - http://www.bohemiancoding.com/sketch -->
    <title>man_jetpack</title>
    <desc>Created with Sketch.</desc>
    <defs></defs>
    <g id="icons-jetpack" stroke="none" stroke-width="1" fill="none" fill-rule="evenodd">
        <g id="man_jetpack" transform="translate(11.000000, 20.000000)">
            <g id="noun_729060_cc" transform="translate(4.000000, 0.000000)" fill="#FFFFFF">
                <g id="Group" transform="translate(52.000000, 55.000000) rotate(39.000000) translate(-52.000000, -55.000000) translate(24.000000, 7.000000)" fill-rule="nonzero">
                    <path d="M38.348,13.985 C38.348,9.379 34.614,5.646 30.008,5.646 C25.402,5.646 21.669,9.379 21.669,13.985 C21.669,18.591 25.402,22.324 30.008,22.324 C34.613,22.324 38.348,18.591 38.348,13.985 L38.348,13.985 Z" id="Shape"></path>
                    <path d="M36.333,74.053 L32,63.178 C31.807,62.692 31.707,62.172 31.707,61.651 C31.707,60.607 30.861,59.761 29.818,59.761 C28.774,59.761 27.929,60.607 27.929,61.651 C27.929,62.172 27.829,62.692 27.636,63.178 L22.877,75.122 C22.598,75.822 22.133,76.432 21.532,76.886 L6.82,88.018 C5.001,89.394 2.412,89.036 1.037,87.217 C-0.339,85.399 0.019,82.811 1.838,81.433 L15.632,70.996 L19.671,60.857 L19.671,31.444 C12.234,24.235 7.031,15.036 4.686,4.948 C4.246,3.054 5.425,1.16 7.319,0.72 C9.213,0.28 11.106,1.458 11.547,3.352 C13.625,12.294 18.285,20.428 24.947,26.743 L35.067,26.743 C41.729,20.429 46.389,12.294 48.467,3.352 C48.906,1.458 50.8,0.28 52.694,0.72 C54.59,1.16 55.768,3.054 55.329,4.948 C52.943,15.21 47.602,24.55 39.965,31.808 L39.965,60.858 L44.43,72.066 C44.709,72.766 44.791,73.53 44.667,74.272 L41.641,92.471 C41.268,94.719 39.141,96.24 36.892,95.866 C34.643,95.492 33.121,93.366 33.496,91.115 L36.333,74.053 Z" id="Shape"></path>
                </g>
                <circle id="Oval" cx="52" cy="34" r="6"></circle>
            </g>
            <g id="belt" transform="translate(53.191571, 54.229386) rotate(42.000000) translate(-53.191571, -54.229386) translate(37.691571, 51.729386)" fill-rule="nonzero" fill="#FFD447">
                <g id="Group" transform="translate(0.000000, -0.000000)">
                    <g transform="translate(0.000000, -0.000000)" id="Shape">
                        <path d="M17.7630778,0.273234446 L12.7536613,0.273234446 C12.6777234,0.273234446 12.6159796,0.334978334 12.6159796,0.410916219 L12.6159796,4.42143012 C12.6159796,4.49736801 12.6777234,4.5591119 12.7536613,4.5591119 L17.7630778,4.5591119 C17.8390157,4.5591119 17.9007596,4.49736801 17.9007596,4.42143012 L17.9007596,2.88173628 L15.258547,2.88173628 C15.0016356,2.88173628 14.7929839,2.67343937 14.7929839,2.41617317 C14.7929839,2.15890697 15.0012808,1.95061006 15.258547,1.95061006 L17.9007596,1.95061006 L17.9007596,0.410916219 C17.9007596,0.335333184 17.8390157,0.273234446 17.7630778,0.273234446 Z"></path>
                        <path d="M11.6848533,0.411271069 C11.6848533,0.308719439 11.7040152,0.211490558 11.7309838,0.117810177 L0.633407124,0.117810177 C0.440723613,0.117810177 0.284234794,0.274298996 0.284234794,0.466982507 L0.284234794,4.50162621 C0.284234794,4.69466457 0.440723613,4.85079854 0.633407124,4.85079854 L11.7760498,4.85079854 C11.7182092,4.71914921 11.6848533,4.57472529 11.6848533,4.42213982 L11.6848533,0.411271069 Z"></path>
                        <path d="M29.8836868,0.117455327 L18.7857553,0.117455327 C18.8127239,0.211490558 18.8318858,0.308364589 18.8318858,0.410916219 L18.8318858,4.42143012 C18.8318858,4.57401559 18.7985299,4.71843952 18.7406893,4.85008884 L29.8836868,4.85008884 C30.0763703,4.85008884 30.2328592,4.69395487 30.2328592,4.50091651 L30.2328592,0.466272808 C30.2325043,0.273944146 30.0763703,0.117455327 29.8836868,0.117455327 Z"></path>
                    </g>
                </g>
            </g>
            <g id="noun_975273_cc" transform="translate(42.029876, 45.597650) rotate(51.000000) translate(-42.029876, -45.597650) translate(23.029876, 8.097650)" fill-rule="nonzero" fill="#FFD447">
                <g id="Group" transform="translate(-0.000000, 0.000000)">
                    <g transform="translate(-0.000000, 0.495307)" id="Shape">
                        <path d="M18.637485,0.28125518 C11.9599071,2.07410358 6.68231493,16.6367355 6.26103012,34.4985283 C2.72821718,35.0258138 -7.46069873e-14,39.362213 -7.46069873e-14,42.9921738 L-7.46069873e-14,49.9812307 L6.98905687,47.6515451 C7.76561875,50.7577926 7.76561875,51.5343545 8.54218062,54.640602 L28.7327894,54.640602 C29.5093512,51.5343545 29.5093512,50.7577926 30.2859131,47.6515451 L37.27497,49.9812307 L37.27497,42.9921738 C37.27497,39.362213 34.5467528,35.0258138 31.0139399,34.4985283 C30.5926551,16.6367355 25.3150629,2.07410358 18.637485,0.28125518 Z M18.637485,15.0359308 C21.2107004,15.0359308 23.2968562,17.1220866 23.2968562,19.6953021 C23.2968562,22.2685175 21.2107004,24.3546733 18.637485,24.3546733 C16.0641919,24.3546733 13.9781137,22.2685175 13.9781137,19.6953021 C13.9781137,17.1220866 16.0641919,15.0359308 18.637485,15.0359308 Z M10.7047586,55.2480984 C10.4129036,56.318092 10.9722768,58.0612505 10.8489196,59.2349157 C10.1038476,66.3238022 12.9275791,72.53372 17.2808184,73.8560608 C21.8138591,73.4677056 25.8669997,67.9805763 26.6120717,60.8916897 C26.7354289,59.7180245 26.7538964,58.5832386 26.6909819,57.4759572 C25.3526336,61.5929371 22.0706951,63.4026129 18.4198505,63.0188937 C14.7689074,62.6351641 11.1576955,59.5533499 10.7047586,55.2480984 Z"></path>
                    </g>
                </g>
            </g>
        </g>
    </g>
</svg>