<?xml version="1.0" encoding="UTF-8"?>
<svg width="135px" height="140px" viewBox="0 0 135 140" version="1.1" xmlns="http://www.w3.org/2000/svg" xmlns:xlink="http://www.w3.org/1999/xlink">
    <!-- Generator: Sketch 42 (36781) - http://www.bohemiancoding.com/sketch -->
    <title>pin_map</title>
    <desc>Created with Sketch.</desc>
    <defs></defs>
    <g id="icons-jetpack" stroke="none" stroke-width="1" fill="none" fill-rule="evenodd">
        <g id="map" transform="translate(19.000000, 25.000000)" fill-rule="nonzero">
            <g id="Group">
                <g id="Shape">
                    <polygon fill="#FFFFFF" points="14.9 37.9 0 83.1 22.4 76.1 29.8 31.1"></polygon>
                    <polygon fill="#FFFFFF" points="24.9 76.2 47.7 83.3 47.7 37.7 32.4 30.8"></polygon>
                    <path d="M64.8,43.5 L59.7,33.4 L50.3,37.7 L50.3,83.3 L73.1,76.2 L68.1,46 C66.7,45.8 65.5,44.9 64.8,43.5 Z" fill="#FFFFFF"></path>
                    <path d="M83.1,37.9 L77.3,35.3 C75.1,39.6 73.2,43.4 73,43.6 C72.5,44.6 71.6,45.4 70.6,45.8 L75.6,76.1 L98,83.1 L83.1,37.9 Z" fill="#FFFFFF"></path>
                    <path d="M67.1,42.4 C67.9,43.9 70.1,43.9 70.8,42.4 C70.8,42.4 79.6,25.3 81.6,21.2 C83.6,17.2 83.7,12.6 81.6,8.5 C78.1,1.5 69.6,-1.3 62.6,2.2 C55.6,5.7 52.9,14.5 56.3,21.2 C59.7,28 67.1,42.4 67.1,42.4 Z M69,7.5 C73.1,7.5 76.4,10.8 76.4,14.9 C76.4,19 73.1,22.3 69,22.3 C64.9,22.3 61.6,19 61.6,14.9 C61.6,10.8 64.9,7.5 69,7.5 Z" fill="#FFD447"></path>
                    <path d="M69,19.9 C71.8,19.9 74.1,17.6 74.1,14.8 C74.1,12 71.8,9.7 69,9.7 C66.2,9.7 63.9,12 63.9,14.8 C63.9,17.7 66.2,19.9 69,19.9 Z" fill="#FFFFFF"></path>
                </g>
            </g>
        </g>
    </g>
</svg>