<?xml version="1.0" encoding="UTF-8"?>
<svg width="135px" height="135px" viewBox="0 0 135 135" version="1.1" xmlns="http://www.w3.org/2000/svg" xmlns:xlink="http://www.w3.org/1999/xlink">
    <!-- Generator: Sketch 42 (36781) - http://www.bohemiancoding.com/sketch -->
    <title>rocket_electric</title>
    <desc>Created with Sketch.</desc>
    <defs></defs>
    <g id="icons-jetpack" stroke="none" stroke-width="1" fill="none" fill-rule="evenodd">
        <g id="rocket_electric" transform="translate(68.500000, 68.000000) rotate(45.000000) translate(-68.500000, -68.000000) translate(-5.000000, -5.000000)" fill-rule="nonzero">
            <g id="rocket" transform="translate(72.000000, 74.500000) rotate(1.000000) translate(-72.000000, -74.500000) translate(53.000000, 38.000000)" fill="#FFFFFF">
                <g id="Group">
                    <g transform="translate(0.000000, 0.495307)" id="Shape">
                        <path d="M18.637485,0.28125518 C11.9599071,2.07410358 6.68231493,16.6367355 6.26103012,34.4985283 C2.72821718,35.0258138 2.48689958e-14,39.362213 2.48689958e-14,42.9921738 L2.48689958e-14,49.9812307 L6.98905687,47.6515451 C7.76561875,50.7577926 7.76561875,51.5343545 8.54218062,54.640602 L28.7327894,54.640602 C29.5093512,51.5343545 29.5093512,50.7577926 30.2859131,47.6515451 L37.27497,49.9812307 L37.27497,42.9921738 C37.27497,39.362213 34.5467528,35.0258138 31.0139399,34.4985283 C30.5926551,16.6367355 25.3150629,2.07410358 18.637485,0.28125518 Z M18.637485,15.0359308 C21.2107004,15.0359308 23.2968562,17.1220866 23.2968562,19.6953021 C23.2968562,22.2685175 21.2107004,24.3546733 18.637485,24.3546733 C16.0641919,24.3546733 13.9781137,22.2685175 13.9781137,19.6953021 C13.9781137,17.1220866 16.0641919,15.0359308 18.637485,15.0359308 Z M12.6433592,58.1836655 C12.5035004,59.0417664 12.42499,59.9279788 12.42499,60.853097 C12.42499,66.4407703 15.1352686,71.0507522 18.637485,71.7249632 C22.1397014,71.0507522 24.84998,66.4407703 24.84998,60.853097 C24.84998,59.9279788 24.7713919,59.0417664 24.6316108,58.1836655 C23.9255607,61.5030016 21.5151903,63.1827826 18.637485,63.1827826 C15.759702,63.1827826 13.3492539,61.5030016 12.6433592,58.1836655 Z"></path>
                    </g>
                </g>
            </g>
            <g id="lightning" transform="translate(73.176930, 72.980970) rotate(-135.000000) translate(-73.176930, -72.980970) translate(28.176930, 14.980970)" fill="#FFD447">
                <g id="Group" transform="translate(-0.000000, -0.000000)">
                    <polygon id="Shape" points="77.7868918 20.2248331 69.2747949 20.2248331 57.3991519 36.0615706 66.3230528 36.0615706 58.2620933 51.3850711 77.4436648 32.1023732 68.5197151 32.1023732"></polygon>
                    <polyline id="Shape" points="20.0162396 99.2278559 28.5283364 99.2278559 40.4039794 83.3911184 31.4800785 83.3911184 39.541038 68.0676179 20.3594665 87.3503158 29.2834162 87.3503158"></polyline>
                    <polyline id="Shape" points="85.3080935 115.213937 89.5641419 107.262017 82.874531 88.3036195 78.4125805 96.6402429 70.2248577 81.5003519 76.009143 108.995091 80.4711179 100.658422"></polyline>
                    <polyline id="Shape" transform="translate(9.890928, 17.039865) rotate(-180.000000) translate(-9.890928, -17.039865) " points="15.3045221 33.8966574 19.5605705 25.9447374 12.8709597 6.98633962 8.40900918 15.3229631 0.221286393 0.183072106 6.00557167 27.6778108 10.4675465 19.3411418"></polyline>
                </g>
            </g>
        </g>
    </g>
</svg>