<?xml version="1.0" encoding="UTF-8"?>
<svg width="135px" height="140px" viewBox="0 0 135 140" version="1.1" xmlns="http://www.w3.org/2000/svg" xmlns:xlink="http://www.w3.org/1999/xlink">
    <!-- Generator: Sketch 42 (36781) - http://www.bohemiancoding.com/sketch -->
    <title>tweeting_bird</title>
    <desc>Created with Sketch.</desc>
    <defs></defs>
    <g id="icons-jetpack" stroke="none" stroke-width="1" fill="none" fill-rule="evenodd">
        <g id="rocket_electric" transform="translate(69.500000, 243.000000) rotate(45.000000) translate(-69.500000, -243.000000) translate(-4.000000, 170.000000)"></g>
        <g id="bird" transform="translate(13.000000, 27.000000)">
            <g id="noun_941912_cc" transform="translate(0.000000, 34.715596)">
                <g id="Group" transform="translate(0.000000, -0.000000)">
                    <ellipse id="Oval-2" fill="#FFD447" cx="41.0909091" cy="11.0458716" rx="7.9020979" ry="6.31192661"></ellipse>
                    <path d="M38.5664335,0.205961601 C28.7753116,-1.28324771 19.6298185,5.46271557 18.1438614,15.2847049 C11.8021913,14.3184811 6.10615025,11.7477603 1.40074728,8.04230826 C0.985124525,9.51383729 0.648942076,11.0296889 0.410109263,12.5809908 C-1.57986575,25.7361074 3.81542761,38.3061968 13.4827199,46.0627577 C10.4931521,47.2328883 7.33562115,48.0218476 4.06308713,48.349837 C25.5999992,57.5424766 52.3377612,43.2260763 53.7794568,19.0079142 C56.3797539,18.0681916 58.7589994,16.6764483 61.4566461,15.1429036 L55.9553043,14.5755827 L62.3587613,10.0634779 C57.7330545,11.0917815 54.6726174,11.331113 52.4968978,11.2158897 C50.2061751,5.54248846 45.0585413,1.18994263 38.5664335,0.205961601 L38.5664335,0.205961601 L38.5664335,0.205961601 Z M42.1573686,6.81012353 C44.4304378,7.15588298 45.9871366,9.28339082 45.651082,11.5526872 C45.2972462,13.830946 43.1834415,15.4000051 40.9102443,15.0542457 C38.6371751,14.708499 37.0804764,12.5809908 37.4254855,10.3028094 C37.7703668,8.02455103 39.8931261,6.4643769 42.1573686,6.81012353 Z" id="Shape" fill="#FFFFFF"></path>
                </g>
            </g>
            <g id="noun_253780_cc" transform="translate(60.846154, 0.000000)">
                <g id="Group">
                    <rect id="Rectangle" fill="#FFD447" x="10.2727273" y="4.73394495" width="30.027972" height="29.9816514"></rect>
                    <path d="M25.9764768,0.335446598 C11.8277685,0.335446598 0.358197258,8.96902879 0.358197258,19.6196289 C0.358197258,21.204886 0.619419826,22.7430669 1.09850236,24.2166655 C2.26989196,27.8203918 4.77969219,31.0283134 8.21670504,33.5175628 C8.26933853,33.9430357 8.29318757,34.3779165 8.29318757,34.8155908 C8.29318757,40.4426403 4.25642422,46.8783697 4.25642422,46.8783697 C11.5583954,46.2693087 19.3461036,38.2849461 19.3461036,38.2849461 C19.3461036,38.2849461 19.3299536,38.2695811 19.3037117,38.2454958 C21.4305016,38.6765646 23.6680131,38.9062087 25.9764759,38.9062087 C35.3140266,38.9062087 43.4816047,35.1450835 47.9589453,29.5260712 C50.2659127,26.630193 51.5952036,23.242532 51.5952036,19.6196289 C51.5952045,8.96902873 40.1252606,0.335446598 25.9764768,0.335446598 Z M36.1065089,9.69603183 L28.0828402,9.69603183 L28.0828402,25.0956118 L28.0828402,25.0956118 C28.0828402,25.6659666 28.1088197,25.620322 28.012077,25.9722268 C27.9475557,26.2068359 27.8707999,26.3567046 27.766954,26.5890814 C27.1956144,27.8671688 26.0488338,29.0312176 24.4941335,29.7497048 C24.47522,29.7584469 24.4580687,29.743678 24.4390786,29.7522352 C21.5654809,31.0525499 18.4224575,30.3669466 17.3962588,28.1679441 C17.199706,27.7471403 17.096505,27.2969315 17.0754971,26.8432982 C16.9758379,24.9082727 18.7440718,22.8094973 21.0914132,21.7249128 C22.5815921,21.0360939 24.6441251,20.9034069 25.7903635,21.2286569 L25.7903635,6.27390295 L28.1834111,6.27390295 L36.1065089,6.27390295 L36.1065089,9.69603183 Z" id="Shape" fill="#FFFFFF" fill-rule="nonzero"></path>
                </g>
            </g>
        </g>
    </g>
</svg>